#N canvas 258 219 1120 688 10;
#X obj 351 249 vcf~ 1;
#X obj 402 43 vsl 15 128 0.04 9 1 0 empty empty q 0 -9 0 10 -261682
-1 -1 3100 1;
#X floatatom 384 231 5 0 0 0 - - -;
#X obj 372 43 vsl 15 128 20 20000 1 1 empty empty freq 0 -9 0 10 -261682
-1 -1 12700 1;
#X floatatom 367 190 5 0 0 0 - - -;
#X obj 318 211 gate~;
#X obj 367 210 sig~;
#X obj 260 42 tgl 15 0 empty empty on_off_lp -30 -7 0 10 -262144 -1
-1 1 1;
#X obj 32 299 gate~;
#X obj 334 168 tgl 15 1 empty empty on_off_fxs -30 -7 0 10 -204786
-1 -1 1 1;
#X obj 94 179 t b f;
#X msg 94 200 0;
#X obj 94 221 expr if ($f2 == 1 \, $f1 \, 1);
#X text 9 239 condition pour activer les effets ou le signal dry;
#X obj 518 237 expr 500/$f1;
#X obj 518 259 + 1.451;
#X obj 519 281 sig~;
#X obj 519 302 vd~ buff;
#X obj 428 301 delread~ buff;
#X msg 428 274 1.451;
#X obj 502 324 +~;
#X obj 506 353 *~;
#X obj 450 42 tgl 15 0 empty empty Octave 0 -6 0 10 -232576 -1 -1 1
1;
#X obj 479 354 *~;
#X obj 418 353 tgl 15 1 empty empty Original 0 -6 0 10 -262144 -1 -1
1 1;
#X obj 149 635 dac~;
#X obj 158 542 *~;
#X obj 275 557 line~;
#X msg 275 533 \$1 20;
#X obj 155 563 hip~ 20;
#X obj 378 406 vsl 15 128 0 1 0 0 empty master_vol empty 0 -9 0 10
-262144 -1 -1 0 1;
#X obj 519 392 +~;
#X obj 301 285 delwrite~ buff 100;
#X text 298 265 pour octaver;
#X obj 37 73 catch~ fxs;
#N canvas 308 80 586 391 lfo 0;
#X obj 204 79 inlet freq;
#X obj 312 80 inlet min;
#X obj 403 80 inlet max;
#X obj 204 107 osc~;
#X obj 204 144 *~ 0.5;
#X obj 204 166 +~ 0.5;
#X obj 312 162 -;
#X obj 312 107 t b f;
#X obj 205 204 *~;
#X obj 204 239 +~;
#X obj 203 268 outlet~;
#X text 86 109 onde sinusoidale;
#X text 294 186 max - min = ambitus total;
#X text 79 148 rammène le signal;
#X text 79 160 entre 0 et 1;
#X text 93 198 multiplié par;
#X text 93 211 l'ambitus total;
#X text 126 233 additionné;
#X text 126 244 au minimum;
#X connect 0 0 3 0;
#X connect 1 0 7 0;
#X connect 1 0 9 1;
#X connect 2 0 6 0;
#X connect 3 0 4 0;
#X connect 4 0 5 0;
#X connect 5 0 8 0;
#X connect 6 0 8 1;
#X connect 7 0 6 0;
#X connect 7 1 6 1;
#X connect 8 0 9 0;
#X connect 9 0 10 0;
#X restore 608 319 pd lfo;
#X floatatom 608 260 5 0 0 0 - - -;
#X floatatom 627 280 5 0 0 0 - - -;
#X floatatom 647 300 5 0 0 0 - - -;
#X text 646 260 fréquence;
#X text 667 280 minimum;
#X text 687 300 maximum;
#X obj 576 340 comb~ 20 5 0.3 0.3 0.4;
#X obj 500 36 vsl 15 128 0 5 0 0 empty empty rate_chor_flang 0 -9 0
10 -204800 -1 -1 0 1;
#X obj 526 48 vsl 15 128 1 10 0 0 empty empty min 0 -9 0 10 -204800
-1 -1 0 1;
#X obj 547 48 vsl 15 128 10 15 0 0 empty empty max 0 -9 0 10 -204800
-1 -1 0 1;
#X obj 601 34 vsl 15 128 0.1 20 0 0 empty empty rate_trem 0 -9 0 10
-262130 -1 -1 0 1;
#X obj 745 227 osc~;
#X obj 624 47 vsl 15 128 0.2 20 1 0 empty empty shape 0 -9 0 10 -262130
-1 -1 0 1;
#X obj 750 270 *~;
#X obj 750 291 clip~ -1 1;
#X obj 750 312 *~;
#X obj 657 48 vsl 15 128 0.2 20 1 0 empty empty depth 0 -9 0 10 -262130
-1 -1 12700 1;
#X obj 750 348 +~;
#X obj 803 340 expr 1-$f1;
#X obj 676 376 *~;
#X obj 715 41 vsl 15 128 0 1000 0 0 empty empty DLY 0 -9 0 10 -261234
-1 -1 0 1;
#X obj 745 41 vsl 15 128 0 1 0 0 empty empty feedback 0 -9 0 10 -261234
-1 -1 0 1;
#X obj 776 404 delwrite~ dly 1000;
#X obj 877 440 delread4~ dly 150;
#X obj 747 467 +~;
#X obj 883 472 *~;
#X obj 906 418 line \$1 20;
#X connect 0 0 32 0;
#X connect 0 1 23 0;
#X connect 1 0 2 0;
#X connect 2 0 0 2;
#X connect 3 0 4 0;
#X connect 4 0 6 0;
#X connect 5 0 0 0;
#X connect 6 0 0 1;
#X connect 7 0 5 0;
#X connect 8 0 26 0;
#X connect 9 0 8 0;
#X connect 9 0 10 0;
#X connect 10 0 11 0;
#X connect 10 1 12 1;
#X connect 11 0 12 0;
#X connect 12 0 7 0;
#X connect 14 0 15 0;
#X connect 15 0 16 0;
#X connect 16 0 17 0;
#X connect 17 0 20 1;
#X connect 18 0 20 0;
#X connect 19 0 18 0;
#X connect 20 0 21 0;
#X connect 21 0 31 1;
#X connect 22 0 21 1;
#X connect 23 0 31 0;
#X connect 24 0 23 1;
#X connect 24 0 22 0;
#X connect 26 0 29 0;
#X connect 27 0 26 1;
#X connect 28 0 27 0;
#X connect 29 0 25 0;
#X connect 29 0 25 1;
#X connect 30 0 28 0;
#X connect 31 0 42 0;
#X connect 34 0 8 1;
#X connect 34 0 5 1;
#X connect 35 0 42 1;
#X connect 36 0 35 0;
#X connect 37 0 35 1;
#X connect 38 0 35 2;
#X connect 42 0 55 0;
#X connect 43 0 36 0;
#X connect 44 0 37 0;
#X connect 45 0 38 0;
#X connect 46 0 47 0;
#X connect 47 0 49 0;
#X connect 48 0 49 1;
#X connect 49 0 50 0;
#X connect 50 0 51 0;
#X connect 51 0 53 0;
#X connect 52 0 51 1;
#X connect 52 0 54 0;
#X connect 53 0 55 1;
#X connect 54 0 53 1;
#X connect 55 0 58 0;
#X connect 55 0 60 0;
#X connect 56 0 62 0;
#X connect 57 0 61 1;
#X connect 59 0 60 1;
#X connect 59 0 61 0;
#X connect 60 0 26 0;
#X connect 61 0 58 0;
#X connect 62 0 59 0;
#X coords 0 -1 1 1 500 180 1 300 10;
