#N canvas 742 60 720 868 10;
#X obj 37 8 loadbang;
#X obj 41 109 soundfiler;
#X obj 43 679 *~;
#X obj 411 448 hsl 128 15 0 1 0 0 empty MasterVol Volume -2 -8 0 10
-261234 -1 -1 0 0;
#X obj 160 694 line~;
#X msg 160 670 \$1 20;
#N canvas 0 0 450 300 (subpatch) 0;
#X array tab5 562500 float 2;
#X coords 0 1 562500 -1 200 140 1 0 0;
#X restore 410 271 graph;
#X floatatom 39 329 5 0 0 0 - - -;
#X obj 39 424 phasor~;
#X obj 411 415 hsl 200 15 0 1 0 0 empty empty empty -2 -6 0 8 -262144
-1 -1 5225 1;
#X obj 39 397 *;
#X obj 413 166 hsl 128 15 -2 2 0 0 empty empty Play_speed -2 -6 0 10
-203904 -1 -1 6350 1;
#X obj 412 239 hsl 200 15 0 1 0 1 empty empty Right_limit -2 -6 0 10
-204800 -1 -1 5700 1;
#X obj 40 525 +~;
#X obj 141 419 -;
#X floatatom 190 384 5 0 0 0 - - -;
#X obj 163 329 t f b;
#X obj 39 584 *~;
#X obj 69 208 expr 1 / $f1;
#X obj 69 259 *;
#X obj 76 297 t b f;
#X obj 40 488 *~;
#X obj 117 569 unsig~ 20;
#X obj 412 209 hsl 200 15 0 1 0 1 empty empty Left_limit -2 -6 0 10
-204800 -1 -1 0 1;
#X obj 40 700 hip~ 20;
#X floatatom 410 182 5 0 0 0 - - -;
#X msg 444 137 1;
#X obj 445 74 loadbang;
#X obj 410 135 hradio 15 1 0 2 empty empty stop_play 0 -8 0 10 -204786
-1 -1 0;
#X obj 87 164 expr 44100 / $f1;
#X obj 518 105 bng 15 250 50 0 empty empty Open_New_Sample 17 7 0 10
-262144 -1 -1;
#X obj 112 65 openpanel;
#X text 174 64 Bouton pour charger nouveau sample si besoin;
#X obj 237 289 f;
#X obj 263 329 f;
#X obj 548 448 bng 15 250 50 0 empty empty Play 17 7 0 10 -262144 -1
-1;
#X obj 117 504 edge~;
#X obj 115 471 expr~ if ($v1 < $v2 \, 1 \, 0);
#X obj 237 445 delay~ 1 1;
#X msg 37 29 read -resize Samples/Lunacy_kick_dly.aif tab5;
#X msg 112 87 read -resize \$1 tab5;
#X obj 39 629 tabread4~ tab5;
#X obj 42 738 throw~ fxs;
#X connect 0 0 39 0;
#X connect 1 0 29 0;
#X connect 1 0 17 1;
#X connect 2 0 24 0;
#X connect 3 0 5 0;
#X connect 4 0 2 1;
#X connect 5 0 4 0;
#X connect 7 0 10 0;
#X connect 8 0 21 0;
#X connect 8 0 38 0;
#X connect 8 0 37 0;
#X connect 10 0 8 0;
#X connect 11 0 20 0;
#X connect 11 0 25 0;
#X connect 12 0 34 1;
#X connect 13 0 17 0;
#X connect 13 0 22 0;
#X connect 14 0 18 0;
#X connect 14 0 21 1;
#X connect 15 0 14 0;
#X connect 16 0 14 1;
#X connect 16 0 13 1;
#X connect 16 1 15 0;
#X connect 17 0 41 0;
#X connect 18 0 19 0;
#X connect 19 0 7 0;
#X connect 20 0 7 0;
#X connect 20 1 10 1;
#X connect 21 0 13 0;
#X connect 22 0 9 0;
#X connect 23 0 33 1;
#X connect 24 0 42 0;
#X connect 26 0 11 0;
#X connect 27 0 26 0;
#X connect 28 0 11 0;
#X connect 29 0 19 1;
#X connect 30 0 31 0;
#X connect 31 0 40 0;
#X connect 33 0 16 0;
#X connect 34 0 15 0;
#X connect 35 0 33 0;
#X connect 35 0 34 0;
#X connect 36 0 35 0;
#X connect 37 0 36 0;
#X connect 38 0 37 1;
#X connect 39 0 1 0;
#X connect 40 0 1 0;
#X connect 41 0 2 0;
#X coords 0 -1 1 1 230 370 1 400 100;
