#N canvas 1315 155 355 355 10;
#X obj 14 243 bng 15 250 50 0 empty empty empty 17 7 0 10 -262144 -1
-1;
#X obj 35 228 metro;
#X floatatom 100 68 5 0 0 0 - - -, f 5;
#X msg 100 24 60000;
#X obj 100 46 /;
#X floatatom 147 45 5 0 0 0 - - -, f 5;
#X obj 147 24 r tempo;
#X obj 62 134 * 1;
#X floatatom 63 182 9 0 0 0 - - -, f 9;
#X obj 35 209 tgl 15 0 empty start empty 17 7 0 10 -262144 -1 -1 1
1;
#X obj 204 21 inlet;
#X obj 38 269 outlet;
#X obj 203 45 sel 0 1 2 3 4;
#X msg 164 73 1;
#X msg 201 73 0.5;
#X obj 104 105 t b f;
#X msg 238 73 0.25;
#X msg 279 73 2;
#X msg 318 74 4;
#X connect 1 0 0 0;
#X connect 2 0 7 0;
#X connect 3 0 4 0;
#X connect 4 0 2 0;
#X connect 5 0 4 1;
#X connect 5 0 3 0;
#X connect 6 0 5 0;
#X connect 7 0 8 0;
#X connect 8 0 1 1;
#X connect 8 0 11 0;
#X connect 9 0 1 0;
#X connect 10 0 12 0;
#X connect 12 0 13 0;
#X connect 12 1 14 0;
#X connect 12 2 16 0;
#X connect 12 3 17 0;
#X connect 12 4 18 0;
#X connect 13 0 15 0;
#X connect 14 0 15 0;
#X connect 15 0 7 0;
#X connect 15 1 7 1;
#X connect 16 0 15 0;
#X connect 17 0 15 0;
#X connect 18 0 15 0;
