#N canvas 527 200 475 354 10;
#X obj 71 74 inlet bang;
#X obj 71 95 t b b;
#X obj 71 300 outlet;
#X obj 71 120 rand_f;
#X obj 71 146 expr -log($f1)/$f2;
#X obj 176 74 inlet lambda;
#X obj 211 98 loadbang;
#X obj 211 120 f \$1;
#X text 9 5 Générateur aléatoire exponentiel.;
#X obj 288 74 inlet dir;
#X obj 319 100 loadbang;
#X obj 319 122 f \$2;
#X obj 71 200 expr 1 - $f1;
#X text 9 21 lambda : raideur de la pente;
#X text 10 38 dir : 0 favorise les petites valeurs \, 1 favorise les
grandes;
#X obj 231 219 spigot;
#X obj 71 251 spigot;
#X obj 270 195 expr 1 - $f1;
#X connect 0 0 1 0;
#X connect 1 0 3 0;
#X connect 3 0 4 0;
#X connect 4 0 15 0;
#X connect 4 0 12 0;
#X connect 5 0 4 1;
#X connect 6 0 7 0;
#X connect 7 0 4 1;
#X connect 9 0 11 0;
#X connect 10 0 11 0;
#X connect 11 0 16 1;
#X connect 11 0 17 0;
#X connect 12 0 16 0;
#X connect 15 0 2 0;
#X connect 16 0 2 0;
#X connect 17 0 15 1;
