#N canvas 570 307 489 225 10;
#X obj 131 41 inlet bang;
#X obj 44 140 outlet;
#X obj 105 92 rand_f;
#X obj 44 92 rand_f;
#X obj 131 62 t b b b b b b;
#X obj 227 92 rand_f;
#X obj 166 92 rand_f;
#X obj 349 92 rand_f;
#X obj 288 92 rand_f;
#X text 5 5 Générateur aléatoire gaussien (distribution "normale").
;
#X obj 44 117 expr ($f1 + $f2 + $f3 + $f4 + $f5 + $f6) / 6;
#X connect 0 0 4 0;
#X connect 2 0 10 1;
#X connect 3 0 10 0;
#X connect 4 0 3 0;
#X connect 4 1 2 0;
#X connect 4 2 6 0;
#X connect 4 3 5 0;
#X connect 4 4 8 0;
#X connect 4 5 7 0;
#X connect 5 0 10 3;
#X connect 6 0 10 2;
#X connect 7 0 10 5;
#X connect 8 0 10 4;
#X connect 10 0 1 0;
