#N canvas 598 226 416 200 10;
#X obj 63 36 inlet bang;
#X obj 63 149 outlet;
#X obj 63 79 rand_f;
#X obj 301 57 loadbang;
#X obj 301 79 f \$1;
#X floatatom 277 103 5 0 0 0 - - -;
#X text 9 5 Générateur aléatoire Weibull.;
#X obj 63 103 expr 1/(1-$f1);
#X obj 63 125 expr 0.5 * pow(log($f1) \, 1/$f2);
#X obj 277 35 inlet t;
#X connect 0 0 2 0;
#X connect 2 0 7 0;
#X connect 3 0 4 0;
#X connect 4 0 5 0;
#X connect 5 0 8 1;
#X connect 7 0 8 0;
#X connect 8 0 1 0;
#X connect 9 0 5 0;
