#N canvas 189 194 1491 834 10;
#X obj 288 43 tgl 15 0 \$0-1 start empty 17 7 0 10 -262144 -1 -1 1
1;
#X obj 375 -192 metro;
#X obj 160 144 tgl 25 0 empty empty empty 17 7 0 10 -262144 -1 -1 0
1;
#X text 105 147 Kick;
#X text 105 175 Snare;
#X text 105 203 HiHat -;
#X text 105 231 HiHat =;
#X text 105 259 Crash;
#X text 105 287 Ride;
#X obj 160 112 bng 25 75 50 0 empty empty empty 17 7 0 10 -4034 -1
-1;
#X obj 187 112 bng 25 75 50 0 empty empty empty 17 7 0 10 -262144 -1
-1;
#X obj 214 112 bng 25 75 50 0 empty empty empty 17 7 0 10 -262144 -1
-1;
#X obj 241 112 bng 25 75 50 0 empty empty empty 17 7 0 10 -262144 -1
-1;
#X floatatom 718 170 5 0 0 0 - - -, f 5;
#X obj 160 172 tgl 25 0 empty empty empty 17 7 0 10 -262144 -1 -1 0
1;
#X floatatom 718 198 5 0 0 0 - - -, f 5;
#X obj 160 200 tgl 25 0 empty empty empty 17 7 0 10 -262144 -1 -1 0
1;
#X floatatom 718 226 5 0 0 0 - - -, f 5;
#X obj 160 228 tgl 25 0 empty empty empty 17 7 0 10 -262144 -1 -1 0
1;
#X floatatom 718 254 5 0 0 0 - - -, f 5;
#X obj 160 256 tgl 25 0 empty empty empty 17 7 0 10 -262144 -1 -1 0
1;
#X floatatom 718 282 5 0 0 0 - - -, f 5;
#X obj 160 284 tgl 25 0 empty empty empty 17 7 0 10 -262144 -1 -1 0
1;
#X floatatom 718 310 5 0 0 0 - - -, f 5;
#X obj 160 312 tgl 25 0 empty empty empty 17 7 0 10 -262144 -1 -1 0
1;
#X floatatom 718 338 5 0 0 0 - - -, f 5;
#X obj 160 340 tgl 25 0 empty empty empty 17 7 0 10 -262144 -1 -1 0
1;
#X floatatom 718 366 5 0 0 0 - - -, f 5;
#X obj 187 144 tgl 25 0 empty empty empty 17 7 0 10 -262144 -1 -1 0
1;
#X floatatom 745 170 5 0 0 0 - - -, f 5;
#X obj 187 172 tgl 25 0 empty empty empty 17 7 0 10 -262144 -1 -1 0
1;
#X floatatom 745 198 5 0 0 0 - - -, f 5;
#X obj 187 200 tgl 25 0 empty empty empty 17 7 0 10 -262144 -1 -1 0
1;
#X floatatom 745 226 5 0 0 0 - - -, f 5;
#X obj 187 228 tgl 25 0 empty empty empty 17 7 0 10 -262144 -1 -1 0
1;
#X floatatom 745 254 5 0 0 0 - - -, f 5;
#X obj 187 256 tgl 25 0 empty empty empty 17 7 0 10 -262144 -1 -1 0
1;
#X floatatom 745 282 5 0 0 0 - - -, f 5;
#X obj 187 284 tgl 25 0 empty empty empty 17 7 0 10 -262144 -1 -1 0
1;
#X floatatom 745 310 5 0 0 0 - - -, f 5;
#X obj 187 312 tgl 25 0 empty empty empty 17 7 0 10 -262144 -1 -1 0
1;
#X floatatom 745 338 5 0 0 0 - - -, f 5;
#X obj 187 340 tgl 25 0 empty empty empty 17 7 0 10 -262144 -1 -1 0
1;
#X floatatom 745 366 5 0 0 0 - - -, f 5;
#X obj 214 144 tgl 25 0 empty empty empty 17 7 0 10 -262144 -1 -1 0
1;
#X floatatom 772 170 5 0 0 0 - - -, f 5;
#X obj 214 172 tgl 25 0 empty empty empty 17 7 0 10 -262144 -1 -1 0
1;
#X floatatom 772 198 5 0 0 0 - - -, f 5;
#X obj 214 200 tgl 25 0 empty empty empty 17 7 0 10 -262144 -1 -1 0
1;
#X floatatom 772 226 5 0 0 0 - - -, f 5;
#X obj 214 228 tgl 25 0 empty empty empty 17 7 0 10 -262144 -1 -1 0
1;
#X floatatom 772 254 5 0 0 0 - - -, f 5;
#X obj 214 256 tgl 25 0 empty empty empty 17 7 0 10 -262144 -1 -1 0
1;
#X floatatom 772 282 5 0 0 0 - - -, f 5;
#X obj 214 284 tgl 25 0 empty empty empty 17 7 0 10 -262144 -1 -1 0
1;
#X floatatom 772 310 5 0 0 0 - - -, f 5;
#X obj 214 312 tgl 25 0 empty empty empty 17 7 0 10 -262144 -1 -1 0
1;
#X floatatom 772 338 5 0 0 0 - - -, f 5;
#X obj 214 340 tgl 25 0 empty empty empty 17 7 0 10 -262144 -1 -1 0
1;
#X floatatom 772 366 5 0 0 0 - - -, f 5;
#X obj 241 144 tgl 25 0 empty empty empty 17 7 0 10 -262144 -1 -1 0
1;
#X floatatom 799 170 5 0 0 0 - - -, f 5;
#X obj 241 172 tgl 25 0 empty empty empty 17 7 0 10 -262144 -1 -1 0
1;
#X floatatom 799 198 5 0 0 0 - - -, f 5;
#X obj 241 200 tgl 25 0 empty empty empty 17 7 0 10 -262144 -1 -1 0
1;
#X floatatom 799 226 5 0 0 0 - - -, f 5;
#X obj 241 228 tgl 25 0 empty empty empty 17 7 0 10 -262144 -1 -1 0
1;
#X floatatom 799 254 5 0 0 0 - - -, f 5;
#X obj 241 256 tgl 25 0 empty empty empty 17 7 0 10 -262144 -1 -1 0
1;
#X floatatom 799 282 5 0 0 0 - - -, f 5;
#X obj 241 284 tgl 25 0 empty empty empty 17 7 0 10 -262144 -1 -1 0
1;
#X floatatom 799 310 5 0 0 0 - - -, f 5;
#X obj 241 312 tgl 25 0 empty empty empty 17 7 0 10 -262144 -1 -1 0
1;
#X floatatom 799 338 5 0 0 0 - - -, f 5;
#X obj 241 340 tgl 25 0 empty empty empty 17 7 0 10 -262144 -1 -1 0
1;
#X floatatom 799 366 5 0 0 0 - - -, f 5;
#X obj 268 144 tgl 25 0 empty empty empty 17 7 0 10 -262144 -1 -1 0
1;
#X obj 268 112 bng 25 75 50 0 empty empty empty 17 7 0 10 -258113 -1
-1;
#X obj 295 112 bng 25 75 50 0 empty empty empty 17 7 0 10 -262144 -1
-1;
#X obj 322 112 bng 25 75 50 0 empty empty empty 17 7 0 10 -262144 -1
-1;
#X obj 349 112 bng 25 75 50 0 empty empty empty 17 7 0 10 -262144 -1
-1;
#X floatatom 834 170 5 0 0 0 - - -, f 5;
#X obj 268 172 tgl 25 0 empty empty empty 17 7 0 10 -262144 -1 -1 0
1;
#X floatatom 834 198 5 0 0 0 - - -, f 5;
#X obj 268 200 tgl 25 0 empty empty empty 17 7 0 10 -262144 -1 -1 0
1;
#X floatatom 834 226 5 0 0 0 - - -, f 5;
#X obj 268 228 tgl 25 0 empty empty empty 17 7 0 10 -262144 -1 -1 0
1;
#X floatatom 834 254 5 0 0 0 - - -, f 5;
#X obj 268 256 tgl 25 0 empty empty empty 17 7 0 10 -262144 -1 -1 0
1;
#X floatatom 834 282 5 0 0 0 - - -, f 5;
#X obj 268 284 tgl 25 0 empty empty empty 17 7 0 10 -262144 -1 -1 0
1;
#X floatatom 834 310 5 0 0 0 - - -, f 5;
#X obj 268 312 tgl 25 0 empty empty empty 17 7 0 10 -262144 -1 -1 0
1;
#X floatatom 834 338 5 0 0 0 - - -, f 5;
#X obj 268 340 tgl 25 0 empty empty empty 17 7 0 10 -262144 -1 -1 0
1;
#X floatatom 834 366 5 0 0 0 - - -, f 5;
#X obj 295 144 tgl 25 0 empty empty empty 17 7 0 10 -262144 -1 -1 0
1;
#X floatatom 861 170 5 0 0 0 - - -, f 5;
#X obj 295 172 tgl 25 0 empty empty empty 17 7 0 10 -262144 -1 -1 0
1;
#X floatatom 861 198 5 0 0 0 - - -, f 5;
#X obj 295 200 tgl 25 0 empty empty empty 17 7 0 10 -262144 -1 -1 0
1;
#X floatatom 861 226 5 0 0 0 - - -, f 5;
#X obj 295 228 tgl 25 0 empty empty empty 17 7 0 10 -262144 -1 -1 0
1;
#X floatatom 861 254 5 0 0 0 - - -, f 5;
#X obj 295 256 tgl 25 0 empty empty empty 17 7 0 10 -262144 -1 -1 0
1;
#X floatatom 861 282 5 0 0 0 - - -, f 5;
#X obj 295 284 tgl 25 0 empty empty empty 17 7 0 10 -262144 -1 -1 0
1;
#X floatatom 861 310 5 0 0 0 - - -, f 5;
#X obj 295 312 tgl 25 0 empty empty empty 17 7 0 10 -262144 -1 -1 0
1;
#X floatatom 861 338 5 0 0 0 - - -, f 5;
#X obj 295 340 tgl 25 0 empty empty empty 17 7 0 10 -262144 -1 -1 0
1;
#X floatatom 861 366 5 0 0 0 - - -, f 5;
#X obj 322 144 tgl 25 0 empty empty empty 17 7 0 10 -262144 -1 -1 0
1;
#X floatatom 888 170 5 0 0 0 - - -, f 5;
#X obj 322 172 tgl 25 0 empty empty empty 17 7 0 10 -262144 -1 -1 0
1;
#X floatatom 888 198 5 0 0 0 - - -, f 5;
#X obj 322 200 tgl 25 0 empty empty empty 17 7 0 10 -262144 -1 -1 0
1;
#X floatatom 888 226 5 0 0 0 - - -, f 5;
#X obj 322 228 tgl 25 0 empty empty empty 17 7 0 10 -262144 -1 -1 0
1;
#X floatatom 888 254 5 0 0 0 - - -, f 5;
#X obj 322 256 tgl 25 0 empty empty empty 17 7 0 10 -262144 -1 -1 0
1;
#X floatatom 888 282 5 0 0 0 - - -, f 5;
#X obj 322 284 tgl 25 0 empty empty empty 17 7 0 10 -262144 -1 -1 0
1;
#X floatatom 888 310 5 0 0 0 - - -, f 5;
#X obj 322 312 tgl 25 0 empty empty empty 17 7 0 10 -262144 -1 -1 0
1;
#X floatatom 888 338 5 0 0 0 - - -, f 5;
#X obj 322 340 tgl 25 0 empty empty empty 17 7 0 10 -262144 -1 -1 0
1;
#X floatatom 888 366 5 0 0 0 - - -, f 5;
#X obj 349 144 tgl 25 0 empty empty empty 17 7 0 10 -262144 -1 -1 0
1;
#X floatatom 915 170 5 0 0 0 - - -, f 5;
#X obj 349 172 tgl 25 0 empty empty empty 17 7 0 10 -262144 -1 -1 0
1;
#X floatatom 915 198 5 0 0 0 - - -, f 5;
#X obj 349 200 tgl 25 0 empty empty empty 17 7 0 10 -262144 -1 -1 0
1;
#X floatatom 915 226 5 0 0 0 - - -, f 5;
#X obj 349 228 tgl 25 0 empty empty empty 17 7 0 10 -262144 -1 -1 0
1;
#X floatatom 915 254 5 0 0 0 - - -, f 5;
#X obj 349 256 tgl 25 0 empty empty empty 17 7 0 10 -262144 -1 -1 0
1;
#X floatatom 915 282 5 0 0 0 - - -, f 5;
#X obj 349 284 tgl 25 0 empty empty empty 17 7 0 10 -262144 -1 -1 0
1;
#X floatatom 915 310 5 0 0 0 - - -, f 5;
#X obj 349 312 tgl 25 0 empty empty empty 17 7 0 10 -262144 -1 -1 0
1;
#X floatatom 915 338 5 0 0 0 - - -, f 5;
#X obj 349 340 tgl 25 0 empty empty empty 17 7 0 10 -262144 -1 -1 0
1;
#X floatatom 915 366 5 0 0 0 - - -, f 5;
#X obj 376 144 tgl 25 0 empty empty empty 17 7 0 10 -262144 -1 -1 0
1;
#X obj 376 112 bng 25 75 50 0 empty empty empty 17 7 0 10 -4034 -1
-1;
#X obj 403 112 bng 25 75 50 0 empty empty empty 17 7 0 10 -262144 -1
-1;
#X obj 430 112 bng 25 75 50 0 empty empty empty 17 7 0 10 -262144 -1
-1;
#X obj 457 112 bng 25 75 50 0 empty empty empty 17 7 0 10 -262144 -1
-1;
#X floatatom 950 170 5 0 0 0 - - -, f 5;
#X obj 376 172 tgl 25 0 empty empty empty 17 7 0 10 -262144 -1 -1 0
1;
#X floatatom 950 198 5 0 0 0 - - -, f 5;
#X obj 376 200 tgl 25 0 empty empty empty 17 7 0 10 -262144 -1 -1 0
1;
#X floatatom 950 226 5 0 0 0 - - -, f 5;
#X obj 376 228 tgl 25 0 empty empty empty 17 7 0 10 -262144 -1 -1 0
1;
#X floatatom 950 254 5 0 0 0 - - -, f 5;
#X obj 376 256 tgl 25 0 empty empty empty 17 7 0 10 -262144 -1 -1 0
1;
#X floatatom 950 282 5 0 0 0 - - -, f 5;
#X obj 376 284 tgl 25 0 empty empty empty 17 7 0 10 -262144 -1 -1 0
1;
#X floatatom 950 310 5 0 0 0 - - -, f 5;
#X obj 376 312 tgl 25 0 empty empty empty 17 7 0 10 -262144 -1 -1 0
1;
#X floatatom 950 338 5 0 0 0 - - -, f 5;
#X obj 376 340 tgl 25 0 empty empty empty 17 7 0 10 -262144 -1 -1 0
1;
#X floatatom 950 366 5 0 0 0 - - -, f 5;
#X obj 403 144 tgl 25 0 empty empty empty 17 7 0 10 -262144 -1 -1 0
1;
#X floatatom 977 170 5 0 0 0 - - -, f 5;
#X obj 403 172 tgl 25 0 empty empty empty 17 7 0 10 -262144 -1 -1 0
1;
#X floatatom 977 198 5 0 0 0 - - -, f 5;
#X obj 403 200 tgl 25 0 empty empty empty 17 7 0 10 -262144 -1 -1 0
1;
#X floatatom 977 226 5 0 0 0 - - -, f 5;
#X obj 403 228 tgl 25 0 empty empty empty 17 7 0 10 -262144 -1 -1 0
1;
#X floatatom 977 254 5 0 0 0 - - -, f 5;
#X obj 403 256 tgl 25 0 empty empty empty 17 7 0 10 -262144 -1 -1 0
1;
#X floatatom 977 282 5 0 0 0 - - -, f 5;
#X obj 403 284 tgl 25 0 empty empty empty 17 7 0 10 -262144 -1 -1 0
1;
#X floatatom 977 310 5 0 0 0 - - -, f 5;
#X obj 403 312 tgl 25 0 empty empty empty 17 7 0 10 -262144 -1 -1 0
1;
#X floatatom 977 338 5 0 0 0 - - -, f 5;
#X obj 403 340 tgl 25 0 empty empty empty 17 7 0 10 -262144 -1 -1 0
1;
#X floatatom 977 366 5 0 0 0 - - -, f 5;
#X obj 430 144 tgl 25 0 empty empty empty 17 7 0 10 -262144 -1 -1 0
1;
#X floatatom 1004 170 5 0 0 0 - - -, f 5;
#X obj 430 172 tgl 25 0 empty empty empty 17 7 0 10 -262144 -1 -1 0
1;
#X floatatom 1004 198 5 0 0 0 - - -, f 5;
#X obj 430 200 tgl 25 0 empty empty empty 17 7 0 10 -262144 -1 -1 0
1;
#X floatatom 1004 226 5 0 0 0 - - -, f 5;
#X obj 430 228 tgl 25 0 empty empty empty 17 7 0 10 -262144 -1 -1 0
1;
#X floatatom 1004 254 5 0 0 0 - - -, f 5;
#X obj 430 256 tgl 25 0 empty empty empty 17 7 0 10 -262144 -1 -1 0
1;
#X floatatom 1004 282 5 0 0 0 - - -, f 5;
#X obj 430 284 tgl 25 0 empty empty empty 17 7 0 10 -262144 -1 -1 0
1;
#X floatatom 1004 310 5 0 0 0 - - -, f 5;
#X obj 430 312 tgl 25 0 empty empty empty 17 7 0 10 -262144 -1 -1 0
1;
#X floatatom 1004 338 5 0 0 0 - - -, f 5;
#X obj 430 340 tgl 25 0 empty empty empty 17 7 0 10 -262144 -1 -1 0
1;
#X floatatom 1004 366 5 0 0 0 - - -, f 5;
#X obj 457 144 tgl 25 0 empty empty empty 17 7 0 10 -262144 -1 -1 0
1;
#X floatatom 1031 170 5 0 0 0 - - -, f 5;
#X obj 457 172 tgl 25 0 empty empty empty 17 7 0 10 -262144 -1 -1 0
1;
#X floatatom 1031 198 5 0 0 0 - - -, f 5;
#X obj 457 200 tgl 25 0 empty empty empty 17 7 0 10 -262144 -1 -1 0
1;
#X floatatom 1031 226 5 0 0 0 - - -, f 5;
#X obj 457 228 tgl 25 0 empty empty empty 17 7 0 10 -262144 -1 -1 0
1;
#X floatatom 1031 254 5 0 0 0 - - -, f 5;
#X obj 457 256 tgl 25 0 empty empty empty 17 7 0 10 -262144 -1 -1 0
1;
#X floatatom 1031 282 5 0 0 0 - - -, f 5;
#X obj 457 284 tgl 25 0 empty empty empty 17 7 0 10 -262144 -1 -1 0
1;
#X floatatom 1031 310 5 0 0 0 - - -, f 5;
#X obj 457 312 tgl 25 0 empty empty empty 17 7 0 10 -262144 -1 -1 0
1;
#X floatatom 1031 338 5 0 0 0 - - -, f 5;
#X obj 457 340 tgl 25 0 empty empty empty 17 7 0 10 -262144 -1 -1 0
1;
#X floatatom 1031 366 5 0 0 0 - - -, f 5;
#X obj 484 144 tgl 25 0 empty empty empty 17 7 0 10 -262144 -1 -1 0
1;
#X obj 484 112 bng 25 75 50 0 empty empty empty 17 7 0 10 -258113 -1
-1;
#X obj 511 112 bng 25 75 50 0 empty empty empty 17 7 0 10 -262144 -1
-1;
#X obj 538 112 bng 25 75 50 0 empty empty empty 17 7 0 10 -262144 -1
-1;
#X obj 565 112 bng 25 75 50 0 empty empty empty 17 7 0 10 -262144 -1
-1;
#X floatatom 1069 170 5 0 0 0 - - -, f 5;
#X obj 484 172 tgl 25 0 empty empty empty 17 7 0 10 -262144 -1 -1 0
1;
#X floatatom 1069 198 5 0 0 0 - - -, f 5;
#X obj 484 200 tgl 25 0 empty empty empty 17 7 0 10 -262144 -1 -1 0
1;
#X floatatom 1069 226 5 0 0 0 - - -, f 5;
#X obj 484 228 tgl 25 0 empty empty empty 17 7 0 10 -262144 -1 -1 0
1;
#X floatatom 1069 254 5 0 0 0 - - -, f 5;
#X obj 484 256 tgl 25 0 empty empty empty 17 7 0 10 -262144 -1 -1 0
1;
#X floatatom 1069 282 5 0 0 0 - - -, f 5;
#X obj 484 284 tgl 25 0 empty empty empty 17 7 0 10 -262144 -1 -1 0
1;
#X floatatom 1069 310 5 0 0 0 - - -, f 5;
#X obj 484 312 tgl 25 0 empty empty empty 17 7 0 10 -262144 -1 -1 0
1;
#X floatatom 1069 338 5 0 0 0 - - -, f 5;
#X obj 484 340 tgl 25 0 empty empty empty 17 7 0 10 -262144 -1 -1 0
1;
#X floatatom 1069 366 5 0 0 0 - - -, f 5;
#X obj 511 144 tgl 25 0 empty empty empty 17 7 0 10 -262144 -1 -1 0
1;
#X floatatom 1096 170 5 0 0 0 - - -, f 5;
#X obj 511 172 tgl 25 0 empty empty empty 17 7 0 10 -262144 -1 -1 0
1;
#X floatatom 1096 198 5 0 0 0 - - -, f 5;
#X obj 511 200 tgl 25 0 empty empty empty 17 7 0 10 -262144 -1 -1 0
1;
#X floatatom 1096 226 5 0 0 0 - - -, f 5;
#X obj 511 228 tgl 25 0 empty empty empty 17 7 0 10 -262144 -1 -1 0
1;
#X floatatom 1096 254 5 0 0 0 - - -, f 5;
#X obj 511 256 tgl 25 0 empty empty empty 17 7 0 10 -262144 -1 -1 0
1;
#X floatatom 1096 282 5 0 0 0 - - -, f 5;
#X obj 511 284 tgl 25 0 empty empty empty 17 7 0 10 -262144 -1 -1 0
1;
#X floatatom 1096 310 5 0 0 0 - - -, f 5;
#X obj 511 312 tgl 25 0 empty empty empty 17 7 0 10 -262144 -1 -1 0
1;
#X floatatom 1096 338 5 0 0 0 - - -, f 5;
#X obj 511 340 tgl 25 0 empty empty empty 17 7 0 10 -262144 -1 -1 0
1;
#X floatatom 1096 366 5 0 0 0 - - -, f 5;
#X obj 538 144 tgl 25 0 empty empty empty 17 7 0 10 -262144 -1 -1 0
1;
#X floatatom 1123 170 5 0 0 0 - - -, f 5;
#X obj 538 172 tgl 25 0 empty empty empty 17 7 0 10 -262144 -1 -1 0
1;
#X floatatom 1123 198 5 0 0 0 - - -, f 5;
#X obj 538 200 tgl 25 0 empty empty empty 17 7 0 10 -262144 -1 -1 0
1;
#X floatatom 1123 226 5 0 0 0 - - -, f 5;
#X obj 538 228 tgl 25 0 empty empty empty 17 7 0 10 -262144 -1 -1 0
1;
#X floatatom 1123 254 5 0 0 0 - - -, f 5;
#X obj 538 256 tgl 25 0 empty empty empty 17 7 0 10 -262144 -1 -1 0
1;
#X floatatom 1123 282 5 0 0 0 - - -, f 5;
#X obj 538 284 tgl 25 0 empty empty empty 17 7 0 10 -262144 -1 -1 0
1;
#X floatatom 1123 310 5 0 0 0 - - -, f 5;
#X obj 538 312 tgl 25 0 empty empty empty 17 7 0 10 -262144 -1 -1 0
1;
#X floatatom 1123 338 5 0 0 0 - - -, f 5;
#X obj 538 340 tgl 25 0 empty empty empty 17 7 0 10 -262144 -1 -1 0
1;
#X floatatom 1123 366 5 0 0 0 - - -, f 5;
#X obj 565 144 tgl 25 0 empty empty empty 17 7 0 10 -262144 -1 -1 0
1;
#X floatatom 1150 170 5 0 0 0 - - -, f 5;
#X obj 565 172 tgl 25 0 empty empty empty 17 7 0 10 -262144 -1 -1 0
1;
#X floatatom 1150 198 5 0 0 0 - - -, f 5;
#X obj 565 200 tgl 25 0 empty empty empty 17 7 0 10 -262144 -1 -1 0
1;
#X floatatom 1150 226 5 0 0 0 - - -, f 5;
#X obj 565 228 tgl 25 0 empty empty empty 17 7 0 10 -262144 -1 -1 0
1;
#X floatatom 1150 254 5 0 0 0 - - -, f 5;
#X obj 565 256 tgl 25 0 empty empty empty 17 7 0 10 -262144 -1 -1 0
1;
#X floatatom 1150 282 5 0 0 0 - - -, f 5;
#X obj 565 284 tgl 25 0 empty empty empty 17 7 0 10 -262144 -1 -1 0
1;
#X floatatom 1150 310 5 0 0 0 - - -, f 5;
#X obj 565 312 tgl 25 0 empty empty empty 17 7 0 10 -262144 -1 -1 0
1;
#X floatatom 1150 338 5 0 0 0 - - -, f 5;
#X obj 565 340 tgl 25 0 empty empty empty 17 7 0 10 -262144 -1 -1 0
1;
#X floatatom 1150 366 5 0 0 0 - - -, f 5;
#X floatatom 1252 186 5 0 0 0 - - -, f 5;
#X floatatom 1252 214 5 0 0 0 - - -, f 5;
#X floatatom 1252 242 5 0 0 0 - - -, f 5;
#X floatatom 1252 270 5 0 0 0 - - -, f 5;
#X floatatom 1252 298 5 0 0 0 - - -, f 5;
#X floatatom 1252 326 5 0 0 0 - - -, f 5;
#X floatatom 1252 354 5 0 0 0 - - -, f 5;
#X floatatom 1252 382 5 0 0 0 - - -, f 5;
#X obj 292 -126 mod 16;
#X obj 292 -98 hradio 15 1 0 17 empty empty empty 0 -8 0 10 -262144
-1 -1 12;
#X obj 290 -154 f;
#X obj 324 -152 + 1;
#X floatatom 396 41 5 1 16 0 - - -, f 5;
#X obj 219 -179 sel 0;
#X obj 291 -80 route 0 1 2 3 4 5 6 7 8 9 10 11 12 13 14 15;
#X obj 575 -49 bng 15 250 50 0 empty empty empty 17 7 0 10 -262144
-1 -1;
#X obj 203 -123 17;
#X obj 170 -121 16;
#X obj 163 -161 t b b b;
#X obj 125 -125 -1;
#X obj 193 -40 sel 1;
#X obj 176 -25 bng 15 250 50 0 empty empty empty 17 7 0 10 -262144
-1 -1;
#X text 275 27 On/Off;
#X text 386 22 # steps;
#X obj 1299 186 sel 1;
#X obj 1406 186 noteout;
#X msg 1337 186 36;
#X msg 1375 187 127;
#X obj 1298 216 sel 1;
#X obj 1406 216 noteout;
#X msg 1370 215 127;
#X msg 1334 216 38;
#X obj 1298 242 sel 1;
#X obj 1406 242 noteout;
#X msg 1370 241 127;
#X obj 1298 271 sel 1;
#X obj 1406 271 noteout;
#X msg 1370 270 127;
#X msg 1334 241 22;
#X msg 1334 271 24;
#X obj 1299 303 sel 1;
#X obj 1407 303 noteout;
#X msg 1371 302 127;
#X msg 1335 303 49;
#X obj 1299 327 sel 1;
#X obj 1407 327 noteout;
#X msg 1371 326 127;
#X text 105 315 China;
#X msg 1335 327 59;
#X obj 1300 355 sel 1;
#X obj 1408 355 noteout;
#X msg 1372 354 127;
#X msg 1336 355 52;
#X msg 1500 165 3;
#X obj 1501 136 loadbang;
#X obj 1302 383 sel 1;
#X obj 1410 383 noteout;
#X msg 1374 382 127;
#X msg 1338 383 52;
#X text 105 343 WAT;
#X obj 409 -223 Note_duration_tb;
#X obj 409 -246 r tempo_drum;
#X msg 664 -42 16;
#X obj 660 -65 loadbang;
#X obj 410 -143 gate;
#X obj 465 -162 tgl 15 0 empty stop_drum on_off 17 7 0 10 -262130 -1
-1 1 1;
#X obj 430 -199 / 2;
#X connect 0 0 1 0;
#X connect 0 0 293 0;
#X connect 0 0 300 0;
#X connect 1 0 344 1;
#X connect 2 0 13 0;
#X connect 9 0 13 0;
#X connect 9 0 15 0;
#X connect 9 0 17 0;
#X connect 9 0 19 0;
#X connect 9 0 21 0;
#X connect 9 0 23 0;
#X connect 9 0 25 0;
#X connect 9 0 27 0;
#X connect 10 0 29 0;
#X connect 10 0 31 0;
#X connect 10 0 33 0;
#X connect 10 0 35 0;
#X connect 10 0 37 0;
#X connect 10 0 39 0;
#X connect 10 0 41 0;
#X connect 10 0 43 0;
#X connect 11 0 45 0;
#X connect 11 0 47 0;
#X connect 11 0 49 0;
#X connect 11 0 51 0;
#X connect 11 0 53 0;
#X connect 11 0 55 0;
#X connect 11 0 57 0;
#X connect 11 0 59 0;
#X connect 12 0 61 0;
#X connect 12 0 63 0;
#X connect 12 0 65 0;
#X connect 12 0 67 0;
#X connect 12 0 69 0;
#X connect 12 0 71 0;
#X connect 12 0 73 0;
#X connect 12 0 75 0;
#X connect 13 0 280 0;
#X connect 14 0 15 0;
#X connect 15 0 281 0;
#X connect 16 0 17 0;
#X connect 17 0 282 0;
#X connect 18 0 19 0;
#X connect 19 0 283 0;
#X connect 20 0 21 0;
#X connect 21 0 284 0;
#X connect 22 0 23 0;
#X connect 23 0 285 0;
#X connect 24 0 25 0;
#X connect 25 0 286 0;
#X connect 26 0 27 0;
#X connect 27 0 287 0;
#X connect 28 0 29 0;
#X connect 29 0 280 0;
#X connect 30 0 31 0;
#X connect 31 0 281 0;
#X connect 32 0 33 0;
#X connect 33 0 282 0;
#X connect 34 0 35 0;
#X connect 35 0 283 0;
#X connect 36 0 37 0;
#X connect 37 0 284 0;
#X connect 38 0 39 0;
#X connect 39 0 285 0;
#X connect 40 0 41 0;
#X connect 41 0 286 0;
#X connect 42 0 43 0;
#X connect 43 0 287 0;
#X connect 44 0 45 0;
#X connect 45 0 280 0;
#X connect 46 0 47 0;
#X connect 47 0 281 0;
#X connect 48 0 49 0;
#X connect 49 0 282 0;
#X connect 50 0 51 0;
#X connect 51 0 283 0;
#X connect 52 0 53 0;
#X connect 53 0 284 0;
#X connect 54 0 55 0;
#X connect 55 0 285 0;
#X connect 56 0 57 0;
#X connect 57 0 286 0;
#X connect 58 0 59 0;
#X connect 59 0 287 0;
#X connect 60 0 61 0;
#X connect 61 0 280 0;
#X connect 62 0 63 0;
#X connect 63 0 281 0;
#X connect 64 0 65 0;
#X connect 65 0 282 0;
#X connect 66 0 67 0;
#X connect 67 0 283 0;
#X connect 68 0 69 0;
#X connect 69 0 284 0;
#X connect 70 0 71 0;
#X connect 71 0 285 0;
#X connect 72 0 73 0;
#X connect 73 0 286 0;
#X connect 74 0 75 0;
#X connect 75 0 287 0;
#X connect 76 0 81 0;
#X connect 77 0 81 0;
#X connect 77 0 83 0;
#X connect 77 0 85 0;
#X connect 77 0 87 0;
#X connect 77 0 89 0;
#X connect 77 0 91 0;
#X connect 77 0 93 0;
#X connect 77 0 95 0;
#X connect 78 0 97 0;
#X connect 78 0 99 0;
#X connect 78 0 101 0;
#X connect 78 0 103 0;
#X connect 78 0 105 0;
#X connect 78 0 107 0;
#X connect 78 0 109 0;
#X connect 78 0 111 0;
#X connect 79 0 113 0;
#X connect 79 0 115 0;
#X connect 79 0 117 0;
#X connect 79 0 119 0;
#X connect 79 0 121 0;
#X connect 79 0 123 0;
#X connect 79 0 125 0;
#X connect 79 0 127 0;
#X connect 80 0 129 0;
#X connect 80 0 131 0;
#X connect 80 0 133 0;
#X connect 80 0 135 0;
#X connect 80 0 137 0;
#X connect 80 0 139 0;
#X connect 80 0 141 0;
#X connect 80 0 143 0;
#X connect 81 0 280 0;
#X connect 82 0 83 0;
#X connect 83 0 281 0;
#X connect 84 0 85 0;
#X connect 85 0 282 0;
#X connect 86 0 87 0;
#X connect 87 0 283 0;
#X connect 88 0 89 0;
#X connect 89 0 284 0;
#X connect 90 0 91 0;
#X connect 91 0 285 0;
#X connect 92 0 93 0;
#X connect 93 0 286 0;
#X connect 94 0 95 0;
#X connect 95 0 287 0;
#X connect 96 0 97 0;
#X connect 97 0 280 0;
#X connect 98 0 99 0;
#X connect 99 0 281 0;
#X connect 100 0 101 0;
#X connect 101 0 282 0;
#X connect 102 0 103 0;
#X connect 103 0 283 0;
#X connect 104 0 105 0;
#X connect 105 0 284 0;
#X connect 106 0 107 0;
#X connect 107 0 285 0;
#X connect 108 0 109 0;
#X connect 109 0 286 0;
#X connect 110 0 111 0;
#X connect 111 0 287 0;
#X connect 112 0 113 0;
#X connect 113 0 280 0;
#X connect 114 0 115 0;
#X connect 115 0 281 0;
#X connect 116 0 117 0;
#X connect 117 0 282 0;
#X connect 118 0 119 0;
#X connect 119 0 283 0;
#X connect 120 0 121 0;
#X connect 121 0 284 0;
#X connect 122 0 123 0;
#X connect 123 0 285 0;
#X connect 124 0 125 0;
#X connect 125 0 286 0;
#X connect 126 0 127 0;
#X connect 127 0 287 0;
#X connect 128 0 129 0;
#X connect 129 0 280 0;
#X connect 130 0 131 0;
#X connect 131 0 281 0;
#X connect 132 0 133 0;
#X connect 133 0 282 0;
#X connect 134 0 135 0;
#X connect 135 0 283 0;
#X connect 136 0 137 0;
#X connect 137 0 284 0;
#X connect 138 0 139 0;
#X connect 139 0 285 0;
#X connect 140 0 141 0;
#X connect 141 0 286 0;
#X connect 142 0 143 0;
#X connect 143 0 287 0;
#X connect 144 0 149 0;
#X connect 145 0 149 0;
#X connect 145 0 151 0;
#X connect 145 0 153 0;
#X connect 145 0 155 0;
#X connect 145 0 157 0;
#X connect 145 0 159 0;
#X connect 145 0 161 0;
#X connect 145 0 163 0;
#X connect 146 0 165 0;
#X connect 146 0 167 0;
#X connect 146 0 169 0;
#X connect 146 0 171 0;
#X connect 146 0 173 0;
#X connect 146 0 175 0;
#X connect 146 0 177 0;
#X connect 146 0 179 0;
#X connect 147 0 181 0;
#X connect 147 0 183 0;
#X connect 147 0 185 0;
#X connect 147 0 187 0;
#X connect 147 0 189 0;
#X connect 147 0 191 0;
#X connect 147 0 193 0;
#X connect 147 0 195 0;
#X connect 148 0 197 0;
#X connect 148 0 199 0;
#X connect 148 0 201 0;
#X connect 148 0 203 0;
#X connect 148 0 205 0;
#X connect 148 0 207 0;
#X connect 148 0 209 0;
#X connect 148 0 211 0;
#X connect 149 0 280 0;
#X connect 150 0 151 0;
#X connect 151 0 281 0;
#X connect 152 0 153 0;
#X connect 153 0 282 0;
#X connect 154 0 155 0;
#X connect 155 0 283 0;
#X connect 156 0 157 0;
#X connect 157 0 284 0;
#X connect 158 0 159 0;
#X connect 159 0 285 0;
#X connect 160 0 161 0;
#X connect 161 0 286 0;
#X connect 162 0 163 0;
#X connect 163 0 287 0;
#X connect 164 0 165 0;
#X connect 165 0 280 0;
#X connect 166 0 167 0;
#X connect 167 0 281 0;
#X connect 168 0 169 0;
#X connect 169 0 282 0;
#X connect 170 0 171 0;
#X connect 171 0 283 0;
#X connect 172 0 173 0;
#X connect 173 0 284 0;
#X connect 174 0 175 0;
#X connect 175 0 285 0;
#X connect 176 0 177 0;
#X connect 177 0 286 0;
#X connect 178 0 179 0;
#X connect 179 0 287 0;
#X connect 180 0 181 0;
#X connect 181 0 280 0;
#X connect 182 0 183 0;
#X connect 183 0 281 0;
#X connect 184 0 185 0;
#X connect 185 0 282 0;
#X connect 186 0 187 0;
#X connect 187 0 283 0;
#X connect 188 0 189 0;
#X connect 189 0 284 0;
#X connect 190 0 191 0;
#X connect 191 0 285 0;
#X connect 192 0 193 0;
#X connect 193 0 286 0;
#X connect 194 0 195 0;
#X connect 195 0 287 0;
#X connect 196 0 197 0;
#X connect 197 0 280 0;
#X connect 198 0 199 0;
#X connect 199 0 281 0;
#X connect 200 0 201 0;
#X connect 201 0 282 0;
#X connect 202 0 203 0;
#X connect 203 0 283 0;
#X connect 204 0 205 0;
#X connect 205 0 284 0;
#X connect 206 0 207 0;
#X connect 207 0 285 0;
#X connect 208 0 209 0;
#X connect 209 0 286 0;
#X connect 210 0 211 0;
#X connect 211 0 287 0;
#X connect 212 0 217 0;
#X connect 213 0 217 0;
#X connect 213 0 219 0;
#X connect 213 0 221 0;
#X connect 213 0 223 0;
#X connect 213 0 225 0;
#X connect 213 0 227 0;
#X connect 213 0 229 0;
#X connect 213 0 231 0;
#X connect 214 0 233 0;
#X connect 214 0 235 0;
#X connect 214 0 237 0;
#X connect 214 0 239 0;
#X connect 214 0 241 0;
#X connect 214 0 243 0;
#X connect 214 0 245 0;
#X connect 214 0 247 0;
#X connect 215 0 249 0;
#X connect 215 0 251 0;
#X connect 215 0 253 0;
#X connect 215 0 255 0;
#X connect 215 0 257 0;
#X connect 215 0 259 0;
#X connect 215 0 261 0;
#X connect 215 0 263 0;
#X connect 216 0 265 0;
#X connect 216 0 267 0;
#X connect 216 0 269 0;
#X connect 216 0 271 0;
#X connect 216 0 273 0;
#X connect 216 0 275 0;
#X connect 216 0 277 0;
#X connect 216 0 279 0;
#X connect 217 0 280 0;
#X connect 218 0 219 0;
#X connect 219 0 281 0;
#X connect 220 0 221 0;
#X connect 221 0 282 0;
#X connect 222 0 223 0;
#X connect 223 0 283 0;
#X connect 224 0 225 0;
#X connect 225 0 284 0;
#X connect 226 0 227 0;
#X connect 227 0 285 0;
#X connect 228 0 229 0;
#X connect 229 0 286 0;
#X connect 230 0 231 0;
#X connect 231 0 287 0;
#X connect 232 0 233 0;
#X connect 233 0 280 0;
#X connect 234 0 235 0;
#X connect 235 0 281 0;
#X connect 236 0 237 0;
#X connect 237 0 282 0;
#X connect 238 0 239 0;
#X connect 239 0 283 0;
#X connect 240 0 241 0;
#X connect 241 0 284 0;
#X connect 242 0 243 0;
#X connect 243 0 285 0;
#X connect 244 0 245 0;
#X connect 245 0 286 0;
#X connect 246 0 247 0;
#X connect 247 0 287 0;
#X connect 248 0 249 0;
#X connect 249 0 280 0;
#X connect 250 0 251 0;
#X connect 251 0 281 0;
#X connect 252 0 253 0;
#X connect 253 0 282 0;
#X connect 254 0 255 0;
#X connect 255 0 283 0;
#X connect 256 0 257 0;
#X connect 257 0 284 0;
#X connect 258 0 259 0;
#X connect 259 0 285 0;
#X connect 260 0 261 0;
#X connect 261 0 286 0;
#X connect 262 0 263 0;
#X connect 263 0 287 0;
#X connect 264 0 265 0;
#X connect 265 0 280 0;
#X connect 266 0 267 0;
#X connect 267 0 281 0;
#X connect 268 0 269 0;
#X connect 269 0 282 0;
#X connect 270 0 271 0;
#X connect 271 0 283 0;
#X connect 272 0 273 0;
#X connect 273 0 284 0;
#X connect 274 0 275 0;
#X connect 275 0 285 0;
#X connect 276 0 277 0;
#X connect 277 0 286 0;
#X connect 278 0 279 0;
#X connect 279 0 287 0;
#X connect 280 0 304 0;
#X connect 281 0 308 0;
#X connect 282 0 312 0;
#X connect 283 0 315 0;
#X connect 284 0 320 0;
#X connect 285 0 324 0;
#X connect 286 0 329 0;
#X connect 288 0 289 0;
#X connect 289 0 294 0;
#X connect 290 0 291 0;
#X connect 290 0 288 0;
#X connect 291 0 290 1;
#X connect 292 0 288 1;
#X connect 293 0 298 0;
#X connect 294 0 9 0;
#X connect 294 1 10 0;
#X connect 294 2 11 0;
#X connect 294 3 12 0;
#X connect 294 4 77 0;
#X connect 294 5 78 0;
#X connect 294 6 79 0;
#X connect 294 7 80 0;
#X connect 294 8 145 0;
#X connect 294 9 146 0;
#X connect 294 10 147 0;
#X connect 294 11 148 0;
#X connect 294 12 213 0;
#X connect 294 13 214 0;
#X connect 294 14 215 0;
#X connect 294 15 216 0;
#X connect 294 16 295 0;
#X connect 296 0 288 1;
#X connect 297 0 288 0;
#X connect 298 0 299 0;
#X connect 298 1 297 0;
#X connect 298 2 296 0;
#X connect 299 0 290 0;
#X connect 300 0 301 0;
#X connect 301 0 292 0;
#X connect 304 0 306 0;
#X connect 304 0 307 0;
#X connect 306 0 305 0;
#X connect 307 0 305 1;
#X connect 308 0 311 0;
#X connect 308 0 310 0;
#X connect 310 0 309 1;
#X connect 311 0 309 0;
#X connect 312 0 318 0;
#X connect 312 0 314 0;
#X connect 314 0 313 1;
#X connect 315 0 319 0;
#X connect 315 0 317 0;
#X connect 317 0 316 1;
#X connect 318 0 313 0;
#X connect 319 0 316 0;
#X connect 320 0 323 0;
#X connect 320 0 322 0;
#X connect 322 0 321 1;
#X connect 323 0 321 0;
#X connect 324 0 326 0;
#X connect 324 0 328 0;
#X connect 326 0 325 1;
#X connect 328 0 325 0;
#X connect 329 0 331 0;
#X connect 329 0 332 0;
#X connect 331 0 330 1;
#X connect 332 0 330 0;
#X connect 333 0 305 2;
#X connect 333 0 309 2;
#X connect 333 0 313 2;
#X connect 333 0 316 2;
#X connect 333 0 321 2;
#X connect 333 0 325 2;
#X connect 333 0 330 2;
#X connect 334 0 333 0;
#X connect 335 0 337 0;
#X connect 335 0 338 0;
#X connect 337 0 336 1;
#X connect 338 0 336 0;
#X connect 340 0 346 0;
#X connect 341 0 340 0;
#X connect 342 0 292 0;
#X connect 343 0 342 0;
#X connect 344 0 290 0;
#X connect 345 0 344 0;
#X connect 346 0 1 1;
#X coords 0 -1 1 1 500 300 1 100 100;
